<svg width="22" height="20" viewBox="0 0 22 20" fill="none" xmlns="http://www.w3.org/2000/svg">
<path d="M17.3878 19.7725C16.5168 19.8044 15.2817 19.5343 13.412 18.578C11.1383 17.4104 9.3727 16.3203 7.07582 14.1918C4.86111 12.1353 3.77078 10.7912 2.21867 8.19719C0.465282 5.26831 0.688106 3.69122 0.97682 3.01009C1.32054 2.19606 1.85364 1.69719 2.54795 1.19598C2.9425 0.916359 3.36199 0.673685 3.80108 0.471034C3.845 0.450216 3.88583 0.430404 3.92226 0.41254C4.1395 0.30496 4.46865 0.142352 4.89845 0.28743C5.18524 0.383246 5.44576 0.591261 5.85542 0.967144C6.69549 1.73691 7.86868 3.47685 8.30946 4.3363C8.60547 4.91559 8.80134 5.29796 8.81777 5.73427C8.83648 6.24509 8.59389 6.64844 8.29756 7.08504C8.24203 7.16703 8.18682 7.24545 8.13331 7.32157C7.81008 7.78014 7.74028 7.91181 7.7978 8.14021C7.91426 8.59921 8.70678 9.94924 9.97087 11.1212C11.235 12.2931 12.5982 12.9392 13.0663 13.0212C13.3083 13.0637 13.4371 12.9813 13.8847 12.6128C13.9489 12.56 14.0148 12.5053 14.0838 12.4505C14.5465 12.0793 14.9131 11.8153 15.412 11.797L15.4146 11.7969C15.8488 11.781 16.2274 11.9556 16.8546 12.2436C17.6726 12.6192 19.5471 13.6455 20.3814 14.4276C20.7871 14.8076 21.0146 15.0512 21.1316 15.3297C21.3078 15.749 21.1687 16.0878 21.0783 16.3145C21.0631 16.3521 21.0463 16.3934 21.0288 16.4392C20.8573 16.8911 20.6445 17.3263 20.3932 17.7392C19.9449 18.4659 19.4844 19.0327 18.6958 19.4355C18.2909 19.6455 17.8437 19.7607 17.3878 19.7725Z" fill="white"/>
</svg>
